<?xml version="1.0"?>
<svg xmlns="http://www.w3.org/2000/svg" xmlns:xlink="http://www.w3.org/1999/xlink" xmlns:svgjs="http://svgjs.com/svgjs" version="1.1" width="512" height="512" x="0" y="0" viewBox="0 0 512.013 512.013" style="enable-background:new 0 0 512 512" xml:space="preserve" class=""><g>
<g xmlns="http://www.w3.org/2000/svg">
	<g>
		<path d="M506.178,125.864L386.13,5.823C382.403,2.096,377.342,0,372.063,0c-0.007,0-0.007,0-0.013,0    c-5.279,0.007-10.339,2.109-14.067,5.843L39.641,324.848c-2.673,2.686-4.523,6.068-5.345,9.769L0.472,487.826    c-1.459,6.632,0.557,13.556,5.365,18.358c3.767,3.774,8.847,5.83,14.067,5.83c1.433,0,2.865-0.153,4.291-0.478l153.202-33.83    c3.694-0.816,7.083-2.679,9.762-5.352l319.005-318.335c3.74-3.727,5.843-8.794,5.843-14.073S509.912,129.598,506.178,125.864z     M163.158,440.114L46.054,465.973l25.859-117.11l300.17-300.8l91.875,91.881L163.158,440.114z" fill="#513e41" data-original="#000000" style="" class=""/>
	</g>
</g>
<g xmlns="http://www.w3.org/2000/svg">
	<g>
		
			<rect x="341.228" y="66.051" transform="matrix(0.7071 -0.7071 0.7071 0.7071 -0.9546 299.5582)" width="39.786" height="169.761" fill="#513e41" data-original="#000000" style="" class=""/>
	</g>
</g>
<g xmlns="http://www.w3.org/2000/svg">
	<g>
		
			<rect x="93.513" y="314.186" transform="matrix(0.7071 -0.7071 0.7071 0.7071 -248.6361 196.937)" width="39.786" height="168.826" fill="#513e41" data-original="#000000" style="" class=""/>
	</g>
</g>
<g xmlns="http://www.w3.org/2000/svg">
</g>
<g xmlns="http://www.w3.org/2000/svg">
</g>
<g xmlns="http://www.w3.org/2000/svg">
</g>
<g xmlns="http://www.w3.org/2000/svg">
</g>
<g xmlns="http://www.w3.org/2000/svg">
</g>
<g xmlns="http://www.w3.org/2000/svg">
</g>
<g xmlns="http://www.w3.org/2000/svg">
</g>
<g xmlns="http://www.w3.org/2000/svg">
</g>
<g xmlns="http://www.w3.org/2000/svg">
</g>
<g xmlns="http://www.w3.org/2000/svg">
</g>
<g xmlns="http://www.w3.org/2000/svg">
</g>
<g xmlns="http://www.w3.org/2000/svg">
</g>
<g xmlns="http://www.w3.org/2000/svg">
</g>
<g xmlns="http://www.w3.org/2000/svg">
</g>
<g xmlns="http://www.w3.org/2000/svg">
</g>
</g></svg>
