<svg id="圖層_1" data-name="圖層 1" xmlns="http://www.w3.org/2000/svg" viewBox="0 0 733.67 369"><defs><style>.cls-1{fill:#654f53;}.cls-2{fill:#a19598;}.cls-3{fill:#d2cbc1;}.cls-4{fill:#e4945e;}.cls-5{fill:#f5ad7c;}.cls-6{fill:#745c5f;}</style></defs><title>homepicsvg</title><path class="cls-1" d="M436.09,591.66s19.54-1.37,17.87-16.52c0,0-2.37-9.93-7.68-14.7,0,0-5,19.07-8.46,17.92s7.07-20.85,7.07-20.85S432.3,542,425.62,539.6c0,0,2,21.87-1.07,19.91s-6.27-24.63-6.27-24.63-15.24-11-22.58-2.34-5.35,15.62-3.17,17.4,18.14,9.07,16.76,10.93-13.66.11-18.76-4.56c0,0-1.08,19.39,8,22.65s14.25-.84,19.81,1.28,8.78,5.4,5.42,5.58-12-5.07-18-3.43-10.64,2.26-3.38,7.7,22.18,11.21,28,6.39Z" transform="translate(-63.49 -277.84)"/><path class="cls-1" d="M401.86,539.23s36.67,34.43,34.23,52.43a36.32,36.32,0,0,0-3,17l-1.46,3.1s.42-12.65-1.37-15.26C430.29,596.48,446.39,587.44,401.86,539.23Z" transform="translate(-63.49 -277.84)"/><path class="cls-1" d="M433.12,608.64s2.57,8.29-7.06,18.83H414.94s17-9.07,16.75-17.55S433.12,608.64,433.12,608.64Z" transform="translate(-63.49 -277.84)"/><path class="cls-2" d="M253.22,635.11l176,.07c9.43-8-6.52-26.16-23.19-27.39-7.23-.55-16.39,1-26.85,3.17C376.72,578.8,363,434.23,310.85,440c-58.6,6.48,0,63.67,16.52,97.52,12.26,25.07,25.18,61,31.09,78-4.76,1-9.68,2-14.71,3-7.76-23.85-36.62-104.07-73.37-99.41-43.14,5.45-25.82,37.61,4.75,56.72,22.43,14.05,50,34,63.06,43.65a187.28,187.28,0,0,1-34.41,2.75C273.64,621.46,258.93,630.33,253.22,635.11Z" transform="translate(-63.49 -277.84)"/><polygon class="cls-1" points="260.32 1.61 323.56 0 316.83 20.33 254.26 19.91 260.32 1.61"/><path class="cls-1" d="M329.33,280.16l-27.46,82.93s-35.55-.94-32.95-19,32.31,2.58,32.31,2.58l22.14-65.92Z" transform="translate(-63.49 -277.84)"/><path class="cls-1" d="M386.18,280.49l-27.46,82.93s-35.55-.95-33-19S358.08,347,358.08,347l22.15-65.92Z" transform="translate(-63.49 -277.84)"/><polygon class="cls-3" points="315.26 161.33 350.5 124.24 358.28 139.71 322.26 175.25 315.26 161.33"/><path class="cls-3" d="M382.31,436.42,414,499.53s-20.87,19.79-29.72,8,19.95-17,19.95-17l-25-50.35Z" transform="translate(-63.49 -277.84)"/><path class="cls-3" d="M415,404.1l31.71,63.12S425.86,487,417,475.17s19.94-17,19.94-17l-25-50.36Z" transform="translate(-63.49 -277.84)"/><path class="cls-4" d="M559,493.36" transform="translate(-63.49 -277.84)"/><path class="cls-1" d="M594.21,508.4s-53.5-30-28.53-70.62c0,0,20-25,41.37-31.38,0,0-11.42,60.63,0,62.05S614.89,400,614.89,400s56.35-27.1,78.46-25c0,0-35,59.21-23.53,57.78s50.64-61.34,50.64-61.34,57.77-10.7,67,23.54-5.71,51.35-14.27,53.49-63.48,1.43-62,8.56,38.51,18.55,59.2,12.13c0,0-22.83,56.35-52.78,53.49s-39.24-21.39-57.78-22.82-32.1,3.57-22.83,8.56,40.66,1.63,55.64,14.37,27.11,20.58-.71,26.29-77.75,2.14-87.74-19.26Z" transform="translate(-63.49 -277.84)"/><path class="cls-1" d="M760.72,409.2S610.93,457.7,593.81,511.91c0,0,.71,24.25-14.27,52.07v10.7s15.7-36.38,24.26-41.37C603.8,533.31,570.27,486.23,760.72,409.2Z" transform="translate(-63.49 -277.84)"/><path class="cls-1" d="M579.54,564s-23.1,35.08-9.93,77.78l5.95-1.6s-5.77-47,6.31-70.69S579.54,564,579.54,564Z" transform="translate(-63.49 -277.84)"/><rect class="cls-1" y="357.34" width="733.67" height="11.66" rx="5.83"/><path class="cls-3" d="M478.63,431.36l-27.87,3.94a4.21,4.21,0,0,1-4.76-3.58l-7.42-52.57a4.19,4.19,0,0,1,3.57-4.75L470,370.46a4.19,4.19,0,0,1,4.75,3.57l7.43,52.58A4.2,4.2,0,0,1,478.63,431.36Z" transform="translate(-63.49 -277.84)"/><path class="cls-1" d="M473.05,432.15l-27.88,3.94a4.21,4.21,0,0,1-4.75-3.58L433,379.94a4.21,4.21,0,0,1,3.58-4.76l27.87-3.93a4.21,4.21,0,0,1,4.76,3.57l7.42,52.58A4.19,4.19,0,0,1,473.05,432.15Z" transform="translate(-63.49 -277.84)"/><path class="cls-3" d="M436.29,383.06a3.64,3.64,0,1,1,4.11,3.09A3.64,3.64,0,0,1,436.29,383.06Z" transform="translate(-63.49 -277.84)"/><circle class="cls-5" cx="479.37" cy="61.77" r="23.8"/><path class="cls-5" d="M541.83,363.39s1,18.12-3.08,17.27c3.09,2,6.74,4.27,13.48,0s5.58-22.56,5.58-22.56S548.11,363.41,541.83,363.39Z" transform="translate(-63.49 -277.84)"/><path class="cls-2" d="M520,313.13s-7.08,20.16-1.93,21,20-12.33,30.71-2.78,9.45,24.9,9.45,24.9-9.17,39.41-4.67,40.53,37.35,11.52,52.51,3.37,14.33-36.5,0-57.57-36.5-34.11-43.24-42.33S520,313.13,520,313.13Z" transform="translate(-63.49 -277.84)"/><path class="cls-3" d="M538.75,380.66s6.92,6.11,14.9-1.19c4.19-4.63,23.43-2.88,27.36,6.67,2.69,6.52,3,51.84-8.21,82.14-4.59,12.36-9.23,29.36-11.73,34.82-7.86,17.22-19-20.56-26.68-20.92-36.36-1.68-41.56-4.53-37.63-31.45,2.54-17.39,2.63-36.67,5.33-50.66.63-3.26-5.56-6.64-4.13-9.11,1.27-2.19,8.85-6.15,12.28-7.88C527.09,374.58,538.75,380.66,538.75,380.66Z" transform="translate(-63.49 -277.84)"/><path class="cls-5" d="M548.31,412s.88,9.68,5,13.69c-2.63.21-22.74,6.74-37.12,4.63s-37.68-13.06-37.68-13.06-28.36,1.71-26.4-3.6,15.45-9.8,20.5-10.37,2.15-5.57-1.4-7c2.38-2.15,11-1.69,13.48.28s33.14,17.11,33.14,17.11Z" transform="translate(-63.49 -277.84)"/><path class="cls-2" d="M538.84,618.28s-4.15,17.8-7.71,19.21-1.26,4,4.6,4,25.85-5.5,33.32-12.5,3.75-23.36,3.75-23.36S554.09,624.66,538.84,618.28Z" transform="translate(-63.49 -277.84)"/><path class="cls-2" d="M505.7,620.87s-4.15,17.8-7.7,19.2-1.26,4,4.59,4,25.85-5.5,33.33-12.51,3.74-23.35,3.74-23.35S521,627.24,505.7,620.87Z" transform="translate(-63.49 -277.84)"/><path class="cls-4" d="M498,391s-17.49,3.15-21.09-2.14l.85,6s4.21-.51,9.7,3.32a83.19,83.19,0,0,0,13.8,7.17s2.6-.84.76-6.65S500.34,397.81,498,391Z" transform="translate(-63.49 -277.84)"/><path class="cls-5" d="M431.29,407.94c1.15.72,3.57,2,11-2.62s-3.74-9.76-3.74-9.76,1-2.26,0-2.89a3.7,3.7,0,0,0-4,0C432.63,393.61,431.29,407.94,431.29,407.94Z" transform="translate(-63.49 -277.84)"/><circle class="cls-1" cx="494.39" cy="61.77" r="6.54"/><rect class="cls-1" x="556.48" y="342.29" width="3.89" height="12.93" rx="1.95" transform="translate(20.42 -385.49) rotate(11.9)"/><path class="cls-6" d="M498.13,473a94.25,94.25,0,0,0,18.15,7c8.43,2.09,17.12,1.81,18.78,1.93-1.67,5.31-15.87,38.33-6.32,68.26,1.12,2.37,21.29,57.14,5.31,69s-27.83,4.87-27.83,4.87-11.74-73.31-7.25-83.87S498.13,473,498.13,473Z" transform="translate(-63.49 -277.84)"/><path class="cls-6" d="M535.06,482.29s28.23,2.25,34.31-4.1c1-.55-17.56,42.43-8,72.36,1.13,2.37,21.29,57.14,5.31,69.05s-27.82,4.88-27.82,4.88-11.75-73.32-7.25-83.88S535.06,482.29,535.06,482.29Z" transform="translate(-63.49 -277.84)"/><path class="cls-4" d="M541.83,364.07s7.81-.56,10.91-2.85-7.24,10.77-10.8,9C541.94,371.19,541.83,364.07,541.83,364.07Z" transform="translate(-63.49 -277.84)"/></svg>