<svg id="圖層_1" data-name="圖層 1" xmlns="http://www.w3.org/2000/svg" viewBox="0 0 305.74 347.42"><defs><style>.cls-1{fill:#4f2c17;}.cls-2{fill:none;}.cls-2,.cls-3{stroke:#4e2b17;stroke-miterlimit:10;stroke-width:4px;}.cls-3{fill:#e6ded8;}</style></defs><title>logosvg</title><path class="cls-1" d="M552.26,244.87c-27.25-63.54-3.81-116.25-3.81-116.25l.94-1.67-10.8-6-156,278.61c-6.89-21.6-30.69-37.4-60.12-37.61-36.35-.26-67.53,23.35-69.63,52.74s25.67,53.41,62,53.67c32.81.24,61.39-19,68.19-44.32L498.89,217.11c18.21,14.54,22.69,39.1,30.64,61.11s1.29,55.59-12.46,87.39-71.7,52-79.46,58.64c13.88,7.77,83-32.65,95.82-51.67C545.27,355.07,569.93,307.42,552.26,244.87Z" transform="translate(-252.69 -120.9)"/><path class="cls-2" d="M509.48,367s-105.28-85.38-134.29-87-43.11-8.29-43.11-8.29l-5-4.7s-40.89,69.36-37.86,68.53c1.39,17.68,109.7,91.18,109.7,91.18s18.51,10.23,33.44,6.91,14.92-15.2,14.92-15.2-33-16.44-33.3-16.85,33.17,13,36.21,16.7a2.1,2.1,0,0,0,1.72.86c15.2-.91,16.55-16.18,16.55-16.18l-40.34-25.42s46.23,23.95,44.21,25.61c19.52-2.22,16.21-20.82,16.21-20.82l-44-27.82c1.29-.73,47.71,26.71,47,29.11C510.86,381.9,509.48,367,509.48,367Z" transform="translate(-252.69 -120.9)"/><path class="cls-3" d="M490.23,267.69s-5.53,7.37-38,0-64.84-4.87-75.16,3.28-33.89,38.35-23.94,47.56,43.47-21,52.31-22.1c3.32,2.21,77.74,40.52,98.74,62.63,7-3.32,26.52-19.16,26.52-19.16Z" transform="translate(-252.69 -120.9)"/><path class="cls-3" d="M307.12,359.06s-15.47,26.89,12.16,28c8.84-2.95,16.21-19.45,16.21-19.45S331.07,337.69,307.12,359.06Z" transform="translate(-252.69 -120.9)"/><path class="cls-3" d="M321.12,389.27l23.58-32.42s20.26-13.26,23.58,13.63c-9.58,15.84-29.1,36.84-29.1,36.84S318.18,410.64,321.12,389.27Z" transform="translate(-252.69 -120.9)"/><path class="cls-3" d="M339.91,409.9l25-34.26s21-1.84,19.53,17.13c-10.68,11.6-22.25,30-22.25,30S343.6,423.16,339.91,409.9Z" transform="translate(-252.69 -120.9)"/><path class="cls-3" d="M365,422.06,380.07,400s22.47-9.21,19.89,13.64c-10.31,18.78-13.63,21.73-13.63,21.73S364.6,441.58,365,422.06Z" transform="translate(-252.69 -120.9)"/></svg>