<svg id="圖層_1" data-name="圖層 1" xmlns="http://www.w3.org/2000/svg" viewBox="0 0 500.2 482.09"><defs><style>.cls-1{fill:#654f53;}.cls-2,.cls-3{fill:none;stroke-linecap:round;stroke-miterlimit:10;stroke-width:30px;}.cls-2{stroke:#654f53;}.cls-3{stroke:#644e52;}</style></defs><title>logopicsvg</title><path class="cls-1" d="M701.87,75.62A141.13,141.13,0,0,1,647.62,120a141.07,141.07,0,0,1-80.85,11.7,3.91,3.91,0,0,0-1.23,0,16.92,16.92,0,0,0-18.08,8.83L457.11,314.21a92.42,92.42,0,1,0-4.82,88.4l.16.09,1.36-2.62q1.92-3.33,3.55-6.83l90.69-174.4a140.94,140.94,0,0,0,71.87-12.76A141.79,141.79,0,0,0,701.87,75.62Z" transform="translate(-201.68 -75.62)"/><path class="cls-2" d="M254,292.81a92.67,92.67,0,0,1,101.8-82.52" transform="translate(-201.68 -75.62)"/><path class="cls-3" d="M216.68,278.74A123.44,123.44,0,0,1,352.29,168.82" transform="translate(-201.68 -75.62)"/><path class="cls-2" d="M489.06,421.26a92.66,92.66,0,0,1-104.84,78.62" transform="translate(-201.68 -75.62)"/><path class="cls-3" d="M525.8,436.72A123.42,123.42,0,0,1,386.16,541.45" transform="translate(-201.68 -75.62)"/></svg>