<svg id="圖層_1" data-name="圖層 1" xmlns="http://www.w3.org/2000/svg" viewBox="0 0 709.19 284.45"><defs><style>.cls-1{fill:#503d40;}.cls-2,.cls-3,.cls-4{fill:#654f53;}.cls-3,.cls-4{stroke:#654f53;stroke-miterlimit:10;}.cls-3{stroke-width:5px;}.cls-4{stroke-width:2px;}</style></defs><title>logoword</title><g id="Group_658" data-name="Group 658"><path id="Path_343" data-name="Path 343" class="cls-1" d="M26.49,462.87h67v3.66h-67Z" transform="translate(-23.99 -202.43)"/><path id="Path_344" data-name="Path 344" class="cls-1" d="M95.58,482.63q5.11-5.53,5.52-16.68l5,.16a48.29,48.29,0,0,1-1,7.49,17.86,17.86,0,0,0,6.71,5.35v-15.5H95.92v-3h13.81v-5.95H98.28v-3h11.45v-5.91H115v5.91h11.32v3H115v5.95h12.67v3H116.88v6.45h10.24v3H116.88v7.86A46,46,0,0,0,127.66,482q16.51.09,34.85-.17a30.74,30.74,0,0,0-1.89,3.29q-21.23,0-34.37-.12-16.32-.2-22.28-7.29a22.23,22.23,0,0,1-5.42,8.87Q97.2,484.59,95.58,482.63ZM136,471.89c0,1.5,1.22,2.25,3.65,2.25h11.59c2.51,0,3.93-.68,4.24-2a49.68,49.68,0,0,0,.75-5.57q2.08.59,5.12,1.2a39.74,39.74,0,0,1-1.22,5.91q-1,3.5-8.22,3.5H138.31q-7.49,0-7.48-4.75V458.87h21V451H129.55v-3H157v15.31h-5.12v-1.41H136Z" transform="translate(-23.99 -202.43)"/><path id="Path_345" data-name="Path 345" class="cls-1" d="M231.53,480.3a33,33,0,0,0-3.65,2.91Q210,478,200.59,469.44v17.14h-5.13V469.44q-9.63,8.32-27.49,14.27a37.21,37.21,0,0,0-3.51-2.62q20.56-6.15,31-16V453.63H165.2v-2.91h30.27v-5.29h5.12v5.29h29.92v2.91H200.59v11.56Q211,475.56,231.53,480.3ZM166,467.61q10.32-5,14-12.19h5.46a33.08,33.08,0,0,1-3.43,4.95c3.28,1.73,6.47,3.47,9.57,5.25L187.51,468q-4.57-3.24-7.88-5.12a39.6,39.6,0,0,1-9.84,6.95q-1.48-1-3.78-2.25Zm38-1.83q7.74-4.2,10.58-10.32h5a29.19,29.19,0,0,1-2.83,4.75q8.35,4.25,12.6,6.82l-4,2.54q-5-3.37-10.92-6.7a28.22,28.22,0,0,1-6.94,5c-1-.67-2.16-1.38-3.5-2.13Z" transform="translate(-23.99 -202.43)"/><path id="Path_346" data-name="Path 346" class="cls-1" d="M265.76,485.75V472.52H246.15A21.59,21.59,0,0,1,238,486.87q-1.75-1.37-4-2.87a19.47,19.47,0,0,0,5.93-8.48,42.15,42.15,0,0,0,1.48-12.74V447.93h54.94V481q0,5-7.62,4.95-4.65,0-10.45-.13c-.22-.91-.56-2.06-1-3.45q5.86.25,9.5.25,4.18,0,4.18-2.46v-7.65H271.16v13.23Zm-19.24-16.23h19.24v-7.78H246.83A42.15,42.15,0,0,1,246.52,469.52Zm.3-18.51v7.74h18.94V451ZM291,451H271.16v7.74H291Zm-19.81,18.51H291v-7.78H271.16Z" transform="translate(-23.99 -202.43)"/><path id="Path_347" data-name="Path 347" class="cls-1" d="M302.9,458.87h19.92a36.29,36.29,0,0,0-4.21-3.82l4.24-1.71c1.8,1.42,3.55,2.91,5.26,4.49l-2.66,1h17.73a57.56,57.56,0,0,0,5.76-5.61l5.26,1.91c-1.4,1.06-3.08,2.29-5.06,3.7h19.68v3H302.9Zm3.44-8.69h28.38a33.58,33.58,0,0,0-3.31-3.54l5.13-1.49c1.3,1.19,2.69,2.54,4.17,4l-3.27,1h28.14v3H306.34Zm4.92,15.4h49v20.56h-5.12v-2.29H316.38v2.37h-5.12Zm43.88,2.95H316.38v4.66h38.76Zm-38.76,12.36h38.76v-4.83H316.38Z" transform="translate(-23.99 -202.43)"/><path id="Path_348" data-name="Path 348" class="cls-1" d="M373.13,472.56h29.39V470.1h5v2.46h29.92v2.66H411.89A89,89,0,0,0,438.24,482a26.11,26.11,0,0,0-3.37,3.2q-16.58-3-27.36-9.2v10.2h-5v-9.82q-10,5-27.57,9.07a15.06,15.06,0,0,0-3.43-3,124.83,124.83,0,0,0,26.42-7.2H373.13Zm7-16.39c1,0,2.92-.05,5.8-.13.94-1.05,1.93-2.18,3-3.37l4.52,1.25a124,124,0,0,1-12.67,12.23l7.28-.41a36.32,36.32,0,0,0-2-3.54l4-1a64.2,64.2,0,0,1,4.39,7.91l-4.25.87c-.31-.58-.61-1.15-.88-1.7A122.76,122.76,0,0,0,376,469.4L375,466.49a66.26,66.26,0,0,0,8.49-7.74q-4.44.12-7.95.41l-.74-2.7a35.5,35.5,0,0,0,7.95-10l5.19.88q-4.25,5.24-7.76,8.86Zm15.17-7.33h6.13c.45-1.22.81-2.34,1.08-3.37l4.65.29c-.36,1-.78,2-1.28,3.08h8.69v20.85H410v-2.5H399.89v2.5h-4.58ZM410,451.43H399.89v5.28H410Zm0,13.19v-5.33H399.89v5.33Zm12-8.41c1,0,2.92,0,5.8-.12q1.47-1.59,3-3.37l4.52,1.24a123.06,123.06,0,0,1-12.67,12.24c.26,0,2.94-.17,8-.42-.68-1.33-1.33-2.51-2-3.54l4-.91a60.62,60.62,0,0,1,4.32,7.86l-4.25.92q-.4-.87-.81-1.71-10.65.47-14.08,1l-1.08-2.91a64.77,64.77,0,0,0,8.56-7.74q-4.86.12-8,.42l-.74-2.71a37.11,37.11,0,0,0,7.95-10l5.19.87q-4.19,5.16-7.75,8.86Z" transform="translate(-23.99 -202.43)"/><path id="Path_349" data-name="Path 349" class="cls-1" d="M484.75,463.29l5.19,1.37a42.84,42.84,0,0,1-12,11.46q10.11,4.62,28.68,6.6-2.49,2.08-4,3.49-18-2.82-28.65-7.84-9.25,4.47-29.45,8.13c-1-1-2.11-2-3.37-3.2q19-3,28.61-7.18a40.67,40.67,0,0,1-11.49-11l4.51-1.58A38.41,38.41,0,0,0,474,473.94,35.59,35.59,0,0,0,484.75,463.29Zm-43.14-11.61h31.58a52,52,0,0,0-4.55-4.95l5-1.5a40.89,40.89,0,0,1,5.12,5.24L475,451.68h31.35v3.08H441.61Zm19.95,5,4.32,2.16a169.55,169.55,0,0,1-19.62,10.95q-1.68-1.29-3.77-2.67a120.4,120.4,0,0,0,19.07-10.44Zm24.2-.21q12.35,6,19.28,10-1.89,1.17-4,2.7-7.62-4.83-18.94-10.57Z" transform="translate(-23.99 -202.43)"/><path id="Path_350" data-name="Path 350" class="cls-1" d="M516.22,447.47h22.85V481q0,4.25-7.14,4.24-3.51,0-7.35,0a21,21,0,0,0-.81-3.12q4.18.21,7,.21c2.29,0,3.44-.7,3.44-2.09V471H521a25.37,25.37,0,0,1-6.68,15.48,31.61,31.61,0,0,0-4.18-2.33q6.13-6.17,6.14-16.44Zm18,2.79H521.08v7.61h13.14Zm-13.14,18h13.14v-7.65H521.08Zm25.34-20.88h26v33.49q0,4.78-7.35,4.79-3.16,0-7.89-.09a26,26,0,0,0-.8-3.12q4,.26,7.68.25c2.34,0,3.5-.73,3.5-2.2V471H551.14a23.69,23.69,0,0,1-7.35,15.48,39.4,39.4,0,0,0-4.11-2.29q6.8-6,6.74-16.94Zm21.09,2.79H551.27v7.65h16.24Zm-16.24,18.1h16.24v-7.7H551.27Z" transform="translate(-23.99 -202.43)"/><path id="Path_351" data-name="Path 351" class="cls-1" d="M580.66,451.84h18.87c.56-2.08,1.06-4.25,1.48-6.49l5.73.45c-.42,2.08-.91,4.1-1.45,6h39.2V455H604.32q-1.05,3.22-2.33,6.16h35.22v3a35.35,35.35,0,0,1-14.56,13.47,89,89,0,0,0,22.78,5.09c-1.57,1.28-3,2.51-4.38,3.71a102.37,102.37,0,0,1-23-6.7,134,134,0,0,1-24.46,7c-1.26-1.14-2.43-2.23-3.51-3.29a123.15,123.15,0,0,0,23.53-5.95,30.78,30.78,0,0,1-13-13.31,48.45,48.45,0,0,1-18.83,20.59q-1.75-1.5-3.58-2.83,14.54-9.17,20.39-26.92H580.66Zm50.41,12.32h-25.3a29.13,29.13,0,0,0,12.3,11.38q9.84-4.94,13-11.38Z" transform="translate(-23.99 -202.43)"/><path id="Path_352" data-name="Path 352" class="cls-1" d="M650.48,450h17v27.34h-4.86v-2.83h-7.28v4.32h-4.86Zm12.14,2.91h-7.29v18.68h7.29ZM678.79,479c0,2,1.58,3,4.72,3H703.8q4,0,4.58-2.75.6-3.12,1-6.74.81.21,5.05,1.21c-.45,2.63-.87,4.82-1.28,6.57q-1.08,4.62-8.42,4.62H682.49q-8.68,0-8.69-5.24V447.52h35.59v20.56h-5v-1.46H678.79Zm0-15.35h10.38V450.51H678.79Zm25.61-13.11H694v13.11H704.4Z" transform="translate(-23.99 -202.43)"/><path id="Path_353" data-name="Path 353" class="cls-1" d="M722,478.68a2.19,2.19,0,0,1,1.28-1.88,5.86,5.86,0,0,1,3.07-.76,5.59,5.59,0,0,1,3,.79,2.23,2.23,0,0,1,1.28,1.85,2.18,2.18,0,0,1-1.25,1.82,5.36,5.36,0,0,1-2.9.78,6.08,6.08,0,0,1-3.26-.78A2.18,2.18,0,0,1,722,478.68Zm7.72-30.05L729,471.69h-5.39l-.74-23.06Z" transform="translate(-23.99 -202.43)"/></g><rect class="cls-2" x="74.34" y="413.18" width="112.1" height="7.92" rx="3.94" transform="translate(236.78 631.85) rotate(180)"/><path class="cls-2" d="M211.29,202.43A29.95,29.95,0,0,1,180.92,208a1.14,1.14,0,0,0-.25-.06,3.58,3.58,0,0,0-4.13,1L150.15,240.7a19.5,19.5,0,1,0-5,18l0,0,.4-.48c.36-.4.71-.82,1-1.25l26.49-31.92a29.94,29.94,0,0,0,38.13-22.67Z" transform="translate(-23.99 -202.43)"/><rect class="cls-3" x="20.63" y="66.2" width="168.27" height="7.85" rx="3.93"/><rect class="cls-4" x="71.69" y="305.4" width="40.51" height="7.92" rx="3.94" transform="translate(377.3 14.99) rotate(90)"/><rect class="cls-4" x="39.31" y="384.25" width="72.29" height="7.85" rx="3.93" transform="translate(439.64 110.3) rotate(90)"/><rect class="cls-4" x="147.6" y="384.25" width="72.29" height="7.85" rx="3.93" transform="translate(547.93 2.01) rotate(90)"/><rect class="cls-4" x="74.34" y="352" width="112.1" height="7.92" rx="3.94" transform="translate(236.78 509.5) rotate(180)"/><rect class="cls-4" x="74.34" y="384.98" width="112.1" height="7.92" rx="3.94" transform="translate(236.78 575.46) rotate(180)"/><rect class="cls-4" x="148.58" y="305.4" width="40.51" height="7.92" rx="3.94" transform="translate(454.2 -61.91) rotate(90)"/><rect class="cls-3" x="2.5" y="121.35" width="204.54" height="8.55" rx="4.28"/><rect class="cls-3" x="200.9" y="65.64" width="166.73" height="7.92" rx="3.96"/><rect class="cls-3" x="175.93" y="305.48" width="184.97" height="9.19" rx="4.23" transform="translate(630.37 -31.03) rotate(111.12)"/><rect class="cls-3" x="539.97" y="65.64" width="166.73" height="7.92" rx="3.96"/><rect class="cls-3" x="515" y="305.48" width="184.97" height="9.19" rx="4.23" transform="matrix(-0.36, 0.93, -0.93, -0.36, 1091.6, -347.33)"/><rect class="cls-4" x="249.2" y="368.24" width="134.5" height="9.19" rx="3.71" transform="translate(779.85 210.28) rotate(135)"/><path class="cls-3" d="M559.62,320.55l-81.86-81.86a5.09,5.09,0,0,0-6.37,0l-81.86,81.86a4,4,0,1,0,5.61,5.6l79.44-79.44L554,326.15a4,4,0,0,0,5.6-5.6Z" transform="translate(-23.99 -202.43)"/><rect class="cls-4" x="260.46" y="322.85" width="105.27" height="9.06" rx="4.53" transform="translate(602.2 452.33) rotate(-180)"/><rect class="cls-2" x="623.32" y="321.13" width="82" height="9.06" rx="4.53" transform="translate(1304.66 448.9) rotate(-180)"/><rect class="cls-2" x="623.99" y="341.12" width="81.34" height="9.06" rx="4.53" transform="translate(1305.32 488.88) rotate(-180)"/><rect class="cls-2" x="583.66" y="361.06" width="88.85" height="9.06" rx="4.17" transform="translate(238.51 791.25) rotate(-90)"/><rect class="cls-4" x="439.69" y="379.5" width="106.9" height="7.92" rx="3.96" transform="translate(1088.99 103.49) rotate(135)"/><rect class="cls-4" x="420.59" y="343.36" width="111.04" height="7.92" rx="3.96" transform="translate(928.24 492.22) rotate(-180)"/><rect class="cls-4" x="267.97" y="396.44" width="105.57" height="9.06" rx="4.53" transform="translate(451.52 688.14) rotate(-158.88)"/><path class="cls-2" d="M476.12,298.46c-14.62,0-26.47,6.81-26.47,15.22s11.85,15.21,26.47,15.21,26.46-6.81,26.46-15.21S490.73,298.46,476.12,298.46Zm0,28.1c-6,0-10.8-5.77-10.8-12.88s4.83-12.89,10.8-12.89,10.79,5.77,10.79,12.89S482.08,326.56,476.12,326.56Z" transform="translate(-23.99 -202.43)"/><circle class="cls-2" cx="591.71" cy="204.68" r="16.92"/><rect class="cls-2" x="657.13" y="361.06" width="88.85" height="9.06" rx="4.17" transform="translate(311.98 864.72) rotate(-90)"/><circle class="cls-2" cx="664.5" cy="204.68" r="16.92"/><rect class="cls-2" x="291.56" y="51.69" width="53.31" height="15.77"/></svg>