<svg id="圖層_1" data-name="圖層 1" xmlns="http://www.w3.org/2000/svg" viewBox="0 0 684.89 205.31"><defs><style>.cls-1,.cls-2,.cls-3{fill:#654f53;}.cls-2,.cls-3{stroke:#654f53;stroke-miterlimit:10;}.cls-2{stroke-width:5px;}.cls-3{stroke-width:2px;}</style></defs><title>logosvg</title><path class="cls-1" d="M246.92,195.48a23.41,23.41,0,0,1-23.76,4.32.67.67,0,0,0-.19-.05,2.8,2.8,0,0,0-3.23.8L199.1,225.42a15.26,15.26,0,1,0-3.87,14.09l0,0,.31-.38a12.24,12.24,0,0,0,.81-1l20.73-25a23.42,23.42,0,0,0,29.82-17.73Z" transform="translate(-78.5 -195.48)"/><rect class="cls-2" x="20.01" y="53.99" width="162.46" height="7.58" rx="3.79"/><rect class="cls-3" x="124.64" y="284.97" width="39.11" height="7.65" rx="3.81" transform="translate(354.49 -50.87) rotate(90)"/><rect class="cls-3" x="93.37" y="361.11" width="69.79" height="7.58" rx="3.79" transform="translate(414.67 41.15) rotate(90)"/><rect class="cls-3" x="197.93" y="361.11" width="69.79" height="7.58" rx="3.79" transform="translate(519.22 -63.41) rotate(90)"/><rect class="cls-3" x="127.2" y="329.97" width="108.23" height="7.65" rx="3.81" transform="translate(284.12 472.11) rotate(180)"/><rect class="cls-3" x="127.2" y="361.81" width="108.23" height="7.65" rx="3.81" transform="translate(284.12 535.79) rotate(180)"/><rect class="cls-1" x="127.2" y="389.03" width="108.23" height="7.65" rx="3.81" transform="translate(284.12 590.24) rotate(180)"/><rect class="cls-3" x="198.88" y="284.97" width="39.11" height="7.65" rx="3.81" transform="translate(428.73 -125.11) rotate(90)"/><rect class="cls-2" x="2.5" y="107.24" width="197.48" height="8.26" rx="4.13"/><rect class="cls-2" x="194.05" y="53.46" width="160.97" height="7.65" rx="3.82"/><rect class="cls-2" x="225.28" y="285.05" width="178.58" height="8.87" rx="4.08" transform="matrix(-0.36, 0.93, -0.93, -0.36, 619.45, -95.14)"/><rect class="cls-2" x="521.42" y="53.46" width="160.97" height="7.65" rx="3.82"/><rect class="cls-2" x="552.64" y="285.05" width="178.58" height="8.87" rx="4.08" transform="translate(1064.75 -400.52) rotate(111.12)"/><rect class="cls-3" x="296.02" y="345.65" width="129.86" height="8.87" rx="3.58" transform="translate(785.22 146.92) rotate(135)"/><path class="cls-2" d="M595.72,299.61l-79-79a4.92,4.92,0,0,0-6.15,0l-79,79a3.82,3.82,0,0,0,5.41,5.4l76.7-76.69L590.32,305a3.82,3.82,0,0,0,5.4-5.4Z" transform="translate(-78.5 -195.48)"/><rect class="cls-3" x="306.89" y="301.82" width="101.64" height="8.75" rx="4.37" transform="translate(636.92 416.92) rotate(-180)"/><rect class="cls-1" x="657.23" y="300.17" width="79.17" height="8.75" rx="4.37" transform="translate(1315.13 413.6) rotate(-180)"/><rect class="cls-1" x="657.87" y="319.47" width="78.53" height="8.75" rx="4.37" transform="translate(1315.77 452.2) rotate(-180)"/><rect class="cls-1" x="618.93" y="338.71" width="85.78" height="8.75" rx="4.03" transform="translate(240.24 809.43) rotate(-90)"/><rect class="cls-3" x="479.93" y="356.52" width="103.21" height="7.65" rx="3.82" transform="translate(1083.69 43.82) rotate(135)"/><rect class="cls-3" x="461.5" y="321.63" width="107.21" height="7.65" rx="3.82" transform="translate(951.7 455.42) rotate(-180)"/><rect class="cls-3" x="314.14" y="372.87" width="101.93" height="8.75" rx="4.37" transform="translate(491.28 665.22) rotate(-158.88)"/><path class="cls-1" d="M515.1,278.28c-14.11,0-25.55,6.58-25.55,14.69S501,307.66,515.1,307.66s25.55-6.58,25.55-14.69S529.21,278.28,515.1,278.28Zm0,27.13c-5.76,0-10.42-5.57-10.42-12.44s4.66-12.44,10.42-12.44,10.43,5.57,10.43,12.44S520.86,305.41,515.1,305.41Z" transform="translate(-78.5 -195.48)"/><circle class="cls-1" cx="571.37" cy="187.69" r="16.33"/><rect class="cls-1" x="689.87" y="338.71" width="85.78" height="8.75" rx="4.03" transform="translate(311.17 880.37) rotate(-90)"/><circle class="cls-1" cx="641.65" cy="187.69" r="16.33"/><rect class="cls-1" x="281.58" y="39.99" width="51.47" height="15.23"/></svg>